<mxfile host="app.diagrams.net" agent="Mozilla/5.0 (Windows NT 10.0; Win64; x64) AppleWebKit/537.36 (KHTML, like Gecko) Chrome/134.0.0.0 Safari/537.36" version="26.1.1">
  <diagram name="PÃ¡gina-1" id="ioq4XRVzIugKUnEFkX1y">
    <mxGraphModel dx="1593" dy="858" grid="1" gridSize="10" guides="1" tooltips="1" connect="1" arrows="1" fold="1" page="1" pageScale="1" pageWidth="827" pageHeight="1169" math="0" shadow="0">
      <root>
        <mxCell id="0" />
        <mxCell id="1" parent="0" />
        <mxCell id="ixutY9yFvbUgLYcTqgwC-4" value="" style="edgeStyle=orthogonalEdgeStyle;rounded=0;orthogonalLoop=1;jettySize=auto;html=1;labelBackgroundColor=none;strokeColor=#A8201A;fontColor=default;" edge="1" parent="1" source="ixutY9yFvbUgLYcTqgwC-2" target="ixutY9yFvbUgLYcTqgwC-3">
          <mxGeometry relative="1" as="geometry" />
        </mxCell>
        <mxCell id="ixutY9yFvbUgLYcTqgwC-2" value="inicio" style="ellipse;whiteSpace=wrap;html=1;labelBackgroundColor=none;fillColor=#FAE5C7;strokeColor=#0F8B8D;fontColor=#143642;" vertex="1" parent="1">
          <mxGeometry x="354" y="10" width="120" height="80" as="geometry" />
        </mxCell>
        <mxCell id="ixutY9yFvbUgLYcTqgwC-6" value="" style="edgeStyle=orthogonalEdgeStyle;rounded=0;orthogonalLoop=1;jettySize=auto;html=1;labelBackgroundColor=none;strokeColor=#A8201A;fontColor=default;" edge="1" parent="1" source="ixutY9yFvbUgLYcTqgwC-3" target="ixutY9yFvbUgLYcTqgwC-5">
          <mxGeometry relative="1" as="geometry" />
        </mxCell>
        <mxCell id="ixutY9yFvbUgLYcTqgwC-3" value="valorcarro" style="shape=parallelogram;perimeter=parallelogramPerimeter;whiteSpace=wrap;html=1;fixedSize=1;labelBackgroundColor=none;fillColor=#FAE5C7;strokeColor=#0F8B8D;fontColor=#143642;" vertex="1" parent="1">
          <mxGeometry x="354" y="150" width="120" height="60" as="geometry" />
        </mxCell>
        <mxCell id="ixutY9yFvbUgLYcTqgwC-9" value="" style="edgeStyle=orthogonalEdgeStyle;rounded=0;orthogonalLoop=1;jettySize=auto;html=1;labelBackgroundColor=none;strokeColor=#A8201A;fontColor=default;" edge="1" parent="1" source="ixutY9yFvbUgLYcTqgwC-5" target="ixutY9yFvbUgLYcTqgwC-8">
          <mxGeometry relative="1" as="geometry" />
        </mxCell>
        <mxCell id="ixutY9yFvbUgLYcTqgwC-5" value="imposto = valorcarro*(45/100) + valorcarro" style="rounded=1;whiteSpace=wrap;html=1;labelBackgroundColor=none;fillColor=#FAE5C7;strokeColor=#0F8B8D;fontColor=#143642;" vertex="1" parent="1">
          <mxGeometry x="354" y="290" width="120" height="60" as="geometry" />
        </mxCell>
        <mxCell id="ixutY9yFvbUgLYcTqgwC-11" value="" style="edgeStyle=orthogonalEdgeStyle;rounded=0;orthogonalLoop=1;jettySize=auto;html=1;labelBackgroundColor=none;strokeColor=#A8201A;fontColor=default;" edge="1" parent="1" source="ixutY9yFvbUgLYcTqgwC-8" target="ixutY9yFvbUgLYcTqgwC-10">
          <mxGeometry relative="1" as="geometry" />
        </mxCell>
        <mxCell id="ixutY9yFvbUgLYcTqgwC-8" value="distribuicao = imposto*(28/100) + imposto" style="rounded=1;whiteSpace=wrap;html=1;labelBackgroundColor=none;fillColor=#FAE5C7;strokeColor=#0F8B8D;fontColor=#143642;" vertex="1" parent="1">
          <mxGeometry x="354" y="430" width="120" height="60" as="geometry" />
        </mxCell>
        <mxCell id="ixutY9yFvbUgLYcTqgwC-13" value="" style="edgeStyle=orthogonalEdgeStyle;rounded=0;orthogonalLoop=1;jettySize=auto;html=1;labelBackgroundColor=none;strokeColor=#A8201A;fontColor=default;" edge="1" parent="1" source="ixutY9yFvbUgLYcTqgwC-10" target="ixutY9yFvbUgLYcTqgwC-12">
          <mxGeometry relative="1" as="geometry" />
        </mxCell>
        <mxCell id="ixutY9yFvbUgLYcTqgwC-10" value="distribuicao" style="shape=document;whiteSpace=wrap;html=1;boundedLbl=1;rounded=1;labelBackgroundColor=none;fillColor=#FAE5C7;strokeColor=#0F8B8D;fontColor=#143642;" vertex="1" parent="1">
          <mxGeometry x="354" y="560" width="120" height="80" as="geometry" />
        </mxCell>
        <mxCell id="ixutY9yFvbUgLYcTqgwC-12" value="fim" style="ellipse;whiteSpace=wrap;html=1;rounded=1;labelBackgroundColor=none;fillColor=#FAE5C7;strokeColor=#0F8B8D;fontColor=#143642;" vertex="1" parent="1">
          <mxGeometry x="374" y="720" width="80" height="80" as="geometry" />
        </mxCell>
      </root>
    </mxGraphModel>
  </diagram>
</mxfile>
